# xmcd CD database file
#
# Track frame offsets:
#	150
#	29544
#	46713
#	63409
#	80578
#	94027
#	108668
#	123804
#	149208
#	162904
#	176855
#	194129
#	216945
#	238336
#
# Disc length: 3399 seconds
#
# Revision: 0
# Processed by: cddbd v1.5.2PL0 Copyright (c) Steve Scherf et al.
# Submitted via: CDex 1.70beta2
#
DISCID=d70d450e
DTITLE=Cangaia de Jegue - ao vivo 2009
DYEAR=2009
DGENRE=Forró
TTITLE0=Cangaia de Jegue Tocar and De frente pro mar
TTITLE1=Dança do Ice
TTITLE2=Chama essa cerveja
TTITLE3=Fogo e Paixão (Part. Wando)
TTITLE4=Solterio de Novo
TTITLE5=Levitar (part. Circuladô de Fulô)
TTITLE6=Não esconda o nosso amor and Canção para uma linda flor
TTITLE7=Gata extraordinária and Colo de menina (part. Rastapé)
TTITLE8=Saudade do interior
TTITLE9=O beijo teu
TTITLE10=Passou do ponto and Vou abraçar alguém
TTITLE11=Forró e paixão and Funga-fungada sanfona (part. Trio Virgulino)
TTITLE12=Ilariê and Tindolelê and Unidunitê and Super fantástico
TTITLE13=Fazer o quê?
EXTD=YEAR: 2009
EXTT0=
EXTT1=
EXTT2=
EXTT3=
EXTT4=
EXTT5=
EXTT6=
EXTT7=
EXTT8=
EXTT9=
EXTT10=
EXTT11=
EXTT12=
EXTT13=
PLAYORDER=
